<svg width="61" height="60" viewBox="0 0 61 60" fill="none" xmlns="http://www.w3.org/2000/svg">
<mask id="mask0_977_178" style="mask-type:alpha" maskUnits="userSpaceOnUse" x="0" y="0" width="61" height="60">
<rect x="0.5" width="60" height="60" fill="#D9D9D9"/>
</mask>
<g mask="url(#mask0_977_178)">
<path d="M46.9373 32.2341C48.5658 31.3493 49.8528 29.9468 50.5948 28.2487C51.3367 26.5505 51.4913 24.6534 51.0339 22.8576C50.5766 21.0618 49.5335 19.4696 48.0697 18.3329C46.6058 17.1963 44.8047 16.58 42.9513 16.5815C41.0978 16.5831 39.2977 17.2024 37.8358 18.3415C36.3739 19.4806 35.3334 21.0745 34.8791 22.8712C34.4248 24.6678 34.5825 26.5645 35.3273 28.2615C36.0721 29.9584 37.3615 31.3587 38.9915 32.2408C38.1997 32.5125 37.4381 32.8655 36.719 33.2939C36.2246 32.656 35.6872 32.0524 35.1107 31.4876C33.0332 29.4754 30.4871 28.0124 27.7023 27.2308C30.1469 26.1425 32.1431 24.2471 33.3561 21.8622C34.569 19.4773 34.9252 16.748 34.3647 14.1318C33.8043 11.5156 32.3613 9.17153 30.2777 7.49261C28.1942 5.81368 25.5967 4.90193 22.9207 4.91021C20.2447 4.91849 17.6529 5.84629 15.5798 7.53808C13.5066 9.22987 12.0782 11.5828 11.534 14.2024C10.9897 16.822 11.3627 19.5491 12.5905 21.9264C13.8182 24.3038 15.826 26.1868 18.2773 27.26C14.5752 28.374 11.33 30.6497 9.02156 33.7504C6.71311 36.8512 5.46401 40.6124 5.45898 44.4778L5.45898 50.7442C5.46031 51.8487 5.89972 52.9075 6.68083 53.6885C7.46195 54.4695 8.52099 54.9088 9.62565 54.9102H52.1256C53.0083 54.9102 53.8549 54.5602 54.4797 53.937C55.1046 53.3138 55.4568 52.4682 55.459 51.5857V44.0371C55.4572 41.4244 54.6332 38.8786 53.1038 36.7602C51.5743 34.6418 49.417 33.0584 46.9373 32.2341ZM36.2923 24.9154C36.2923 23.5971 36.6833 22.3084 37.4159 21.2122C38.1484 20.1161 39.1896 19.2618 40.4078 18.7573C41.6259 18.2528 42.9664 18.1208 44.2596 18.378C45.5528 18.6352 46.7407 19.27 47.673 20.2022C48.6054 21.1344 49.2403 22.322 49.4976 23.615C49.7548 24.908 49.6228 26.2482 49.1182 27.4662C48.6136 28.6841 47.7591 29.7251 46.6628 30.4576C45.5665 31.19 44.2775 31.5809 42.959 31.5809C41.1915 31.5789 39.4969 30.876 38.2471 29.6264C36.9973 28.3768 36.2943 26.6826 36.2923 24.9154ZM12.959 16.5835C12.959 14.6061 13.5455 12.673 14.6443 11.0288C15.7431 9.38459 17.3049 8.10309 19.1321 7.34635C20.9594 6.5896 22.9701 6.3916 24.9099 6.77739C26.8497 7.16317 28.6315 8.11541 30.0301 9.51369C31.4286 10.912 32.381 12.6935 32.7668 14.633C33.1527 16.5724 32.9547 18.5827 32.1978 20.4097C31.4409 22.2366 30.1592 23.7981 28.5147 24.8968C26.8702 25.9954 24.9368 26.5818 22.959 26.5818C20.3077 26.5789 17.7658 25.5246 15.8911 23.6502C14.0163 21.7758 12.9619 19.2343 12.959 16.5835ZM33.7923 53.2438H9.62565C8.96261 53.2438 8.32673 52.9804 7.85788 52.5117C7.38904 52.0429 7.12565 51.4071 7.12565 50.7442V44.4778C7.12565 35.8302 13.969 28.5573 22.3806 28.2582C22.5757 28.2515 22.769 28.2482 22.964 28.2482C27.1624 28.2495 31.1884 29.9179 34.1566 32.8866C37.1249 35.8552 38.7923 39.8811 38.7923 44.0787V50.7442C38.7923 51.4071 38.5289 52.0429 38.0601 52.5117C37.5912 52.9804 36.9554 53.2438 36.2923 53.2438H33.7923ZM53.7923 51.5857C53.7901 52.0262 53.6135 52.448 53.3012 52.7587C52.9889 53.0694 52.5662 53.2438 52.1256 53.2438H39.604C40.1555 52.5269 40.4559 51.6486 40.459 50.7442V44.0787C40.4644 40.7369 39.5036 37.4648 37.6923 34.6562C39.1374 33.8185 40.7629 33.3406 42.4315 33.2631C43.8938 33.1887 45.356 33.4121 46.7294 33.9197C48.1028 34.4273 49.3587 35.2085 50.421 36.216C51.4834 37.2235 52.33 38.4362 52.9095 39.7806C53.489 41.125 53.7894 42.5731 53.7923 44.0371V51.5857Z" fill="#353945"/>
</g>
</svg>
