<svg width="60" height="60" viewBox="0 0 60 60" fill="none" xmlns="http://www.w3.org/2000/svg">
<mask id="mask0_977_171" style="mask-type:alpha" maskUnits="userSpaceOnUse" x="0" y="0" width="60" height="60">
<rect width="60" height="60" fill="#D9D9D9"/>
</mask>
<g mask="url(#mask0_977_171)">
<path d="M47.7082 5H12.2917C8.27079 5 5 8.27079 5 12.2917V37.2916C5 41.3124 8.27079 44.5833 12.2917 44.5833H15.4167V53.9583C15.4167 54.3625 15.65 54.7313 16.0167 54.9021C16.1551 54.9662 16.3058 54.9996 16.4584 55C16.6979 55 16.9354 54.9167 17.1271 54.7583L29.3354 44.5833H47.7083C51.7291 44.5833 55 41.3125 55 37.2916V12.2917C54.9999 8.27079 51.7291 5 47.7082 5ZM52.9166 37.2916C52.9166 40.1624 50.5812 42.4999 47.7083 42.4999H28.9584C28.7146 42.4999 28.4792 42.5854 28.2917 42.7416L17.5 51.7354V43.5416C17.5 42.9666 17.0333 42.4999 16.4583 42.4999H12.2917C9.41874 42.4999 7.08339 40.1624 7.08339 37.2916V12.2917C7.08339 9.42089 9.41884 7.08339 12.2917 7.08339H47.7083C50.5813 7.08339 52.9166 9.42089 52.9166 12.2917V37.2916Z" fill="#353945"/>
</g>
</svg>
