<svg width="60" height="60" viewBox="0 0 60 60" fill="none" xmlns="http://www.w3.org/2000/svg">
<mask id="mask0_977_185" style="mask-type:alpha" maskUnits="userSpaceOnUse" x="0" y="0" width="60" height="60">
<rect width="60" height="60" fill="#D9D9D9"/>
</mask>
<g mask="url(#mask0_977_185)">
<path d="M36.1586 43.9304H24.3885C22.6705 43.9304 21.2734 42.5333 21.2734 40.8152V36.8566C16.1583 33.7473 13 28.1665 13 22.1787C13 12.706 20.7058 5 30.1786 5C39.6514 5 47.3573 12.7058 47.3573 22.1787C47.3573 28.0706 44.2695 33.6063 39.2699 36.7372V40.8152C39.2719 42.5332 37.8748 43.9304 36.1586 43.9304ZM30.1807 6.59679C21.5885 6.59679 14.5988 13.5864 14.5988 22.1787C14.5988 27.7497 17.6142 32.9333 22.4689 35.7061C22.5913 35.7762 22.693 35.8773 22.7638 35.9993C22.8346 36.1213 22.8719 36.2598 22.872 36.4008V40.8173C22.872 41.6528 23.553 42.3338 24.3885 42.3338H36.1586C36.9941 42.3338 37.6751 41.6528 37.6751 40.8173V36.2893C37.6749 36.1502 37.7112 36.0134 37.7802 35.8926C37.8491 35.7718 37.9485 35.6711 38.0684 35.6005C42.8137 32.8042 45.7625 27.6618 45.7625 22.1789C45.7625 13.5865 38.7729 6.59679 30.1807 6.59679Z" fill="#353945"/>
<path d="M30.1812 55.0001C26.3048 55.0001 23.1504 51.8457 23.1504 47.9693C23.1503 47.8644 23.1709 47.7606 23.211 47.6637C23.2511 47.5668 23.31 47.4788 23.3841 47.4046C23.4583 47.3305 23.5463 47.2717 23.6432 47.2316C23.7401 47.1915 23.8439 47.1708 23.9488 47.1709C24.389 47.1709 24.7472 47.529 24.7472 47.9693C24.7472 50.9652 27.1853 53.4013 30.1792 53.4013C33.1731 53.4013 35.6112 50.9652 35.6112 47.9693C35.6112 47.5271 35.9693 47.1709 36.4096 47.1709C36.85 47.1709 37.208 47.529 37.208 47.9693C37.2119 51.8457 34.0575 55.0001 30.1812 55.0001Z" fill="#353945"/>
<path d="M36.4136 48.7694C36.3087 48.7695 36.2049 48.7489 36.108 48.7088C36.0111 48.6687 35.923 48.6099 35.8489 48.5357C35.7747 48.4616 35.7159 48.3735 35.6758 48.2766C35.6357 48.1797 35.6151 48.0759 35.6152 47.971V43.9303H24.7491V47.971C24.7492 48.0759 24.7286 48.1797 24.6885 48.2766C24.6484 48.3735 24.5896 48.4616 24.5154 48.5357C24.4413 48.6099 24.3532 48.6687 24.2563 48.7088C24.1594 48.7489 24.0556 48.7695 23.9507 48.7694C23.5105 48.7694 23.1523 48.4114 23.1523 47.971V43.1319C23.1523 43.027 23.1729 42.9232 23.213 42.8263C23.2531 42.7294 23.3119 42.6414 23.3861 42.5672C23.4602 42.4931 23.5482 42.4343 23.6451 42.3942C23.742 42.354 23.8459 42.3334 23.9507 42.3335H36.4136C36.5184 42.3334 36.6223 42.354 36.7192 42.3942C36.8161 42.4343 36.9041 42.4931 36.9782 42.5672C37.0524 42.6414 37.1112 42.7294 37.1513 42.8263C37.1914 42.9232 37.212 43.027 37.212 43.1319V47.971C37.2118 48.1827 37.1276 48.3857 36.9779 48.5354C36.8282 48.685 36.6252 48.7692 36.4136 48.7694Z" fill="#353945"/>
<path d="M36.4134 48.7696H23.9507C23.5085 48.7696 23.1523 48.4116 23.1523 47.9712C23.1523 47.5309 23.5104 47.1729 23.9507 47.1729H36.4136C36.5184 47.1728 36.6223 47.1934 36.7192 47.2335C36.816 47.2736 36.9041 47.3324 36.9782 47.4066C37.0524 47.4807 37.1112 47.5688 37.1513 47.6656C37.1914 47.7625 37.212 47.8664 37.212 47.9712C37.2118 48.4116 36.8538 48.7696 36.4134 48.7696Z" fill="#353945"/>
</g>
</svg>
