<svg width="24" height="24" viewBox="0 0 24 24" fill="none" xmlns="http://www.w3.org/2000/svg">
<mask id="mask0_977_237" style="mask-type:alpha" maskUnits="userSpaceOnUse" x="0" y="0" width="24" height="24">
<rect width="24" height="24" fill="#D9D9D9"/>
</mask>
<g mask="url(#mask0_977_237)">
<path d="M12.0006 15.6667C11.8297 15.6667 11.6664 15.5967 11.5489 15.4733L7.1739 10.89C6.79473 10.4933 7.0764 9.83333 7.62556 9.83333H9.91723V5.04167C9.91723 4.4675 10.3847 4 10.9589 4H13.0422C13.6164 4 14.0839 4.4675 14.0839 5.04167V9.83333H16.3756C16.9247 9.83333 17.2064 10.4933 16.8272 10.89L12.4522 15.4733C12.3347 15.5967 12.1714 15.6667 12.0006 15.6667Z" fill="#EB2E45"/>
<path d="M20.5417 20.6668H3.45833C2.65417 20.6668 2 20.0127 2 19.2085V18.7918C2 17.9877 2.65417 17.3335 3.45833 17.3335H20.5417C21.3458 17.3335 22 17.9877 22 18.7918V19.2085C22 20.0127 21.3458 20.6668 20.5417 20.6668Z" fill="#EB2E45"/>
</g>
</svg>
