<svg width="32" height="32" viewBox="0 0 32 32" fill="none" xmlns="http://www.w3.org/2000/svg">
<mask id="mask0_977_158" style="mask-type:alpha" maskUnits="userSpaceOnUse" x="0" y="0" width="32" height="32">
<rect width="32" height="32" fill="#D9D9D9"/>
</mask>
<g mask="url(#mask0_977_158)">
<path d="M12.4901 3.63809C13.5147 4.86152 16.0235 8.05272 18.03 12.1781C20.5385 11.4725 23.1728 10.2211 25.7586 8.14725L26.383 7.64658C23.9369 4.61215 20.1913 2.66699 15.9994 2.66699C14.6621 2.66699 13.3704 2.86574 12.1516 3.23382L12.4901 3.63809ZM26.7361 9.36621C24.2453 11.3638 21.5559 12.789 18.6971 13.6333C19.0954 14.5567 19.4425 15.4735 19.7373 16.3805C22.366 16.1569 25.3352 16.525 28.5711 17.4772L29.2283 17.6706C29.2978 17.1166 29.3327 16.5587 29.3327 16.0003C29.3327 13.4007 28.5841 10.9731 27.2924 8.92007L26.7361 9.36621ZM4.28706 11.5429C5.61201 12.0454 8.54831 12.9651 12.2505 12.9652C13.5771 12.9653 15.0021 12.8469 16.4864 12.5493C14.6448 8.85887 12.4104 5.97658 11.2922 4.64116L10.5974 3.81152C7.36435 5.25001 4.80586 7.93798 3.53805 11.2588L4.28706 11.5429ZM7.79768 25.8449C8.38503 24.0963 9.85654 20.8335 13.1128 18.6269C14.5965 17.6216 16.2964 16.9396 18.1778 16.5905C17.8812 15.7074 17.5436 14.8493 17.1795 14.0235C15.7785 14.3308 14.3397 14.5045 12.8659 14.5415C12.6686 14.5465 12.4725 14.5489 12.2789 14.5489C8.40466 14.5489 5.2869 13.5932 3.73294 13.0039L3.06711 12.7514C2.80028 13.8137 2.66556 14.905 2.66602 16.0003C2.66602 20.1818 4.60138 23.9191 7.62279 26.3656L7.79768 25.8449ZM28.13 18.9761C25.013 18.0589 22.3924 17.7729 20.1902 17.9183C20.3884 18.6732 20.549 19.4198 20.671 20.1556C21.1412 22.9921 21.0451 25.7039 20.3852 28.2157L20.2763 28.6302C24.5418 27.1818 27.8434 23.6289 28.9401 19.2145L28.13 18.9761Z" fill="#626262"/>
<path d="M18.8747 27.8185C19.7411 24.5209 19.4727 21.1893 18.6371 18.1011C12.4979 19.1634 10.1236 23.8294 9.27958 26.3422L8.95312 27.314C10.9992 28.593 13.4146 29.3335 16.0002 29.3335C16.8688 29.3335 17.718 29.249 18.5408 29.0897L18.8747 27.8185Z" fill="#626262"/>
</g>
</svg>
