<svg width="32" height="32" viewBox="0 0 32 32" fill="none" xmlns="http://www.w3.org/2000/svg">
<mask id="mask0_2188_67" style="mask-type:alpha" maskUnits="userSpaceOnUse" x="0" y="0" width="32" height="32">
<rect width="32" height="32" fill="#D9D9D9"/>
</mask>
<g mask="url(#mask0_2188_67)">
<path d="M22.1162 2.66699H9.88641C5.90609 2.66699 2.66797 5.90512 2.66797 9.88543V22.1154C2.66797 26.0955 5.90609 29.3337 9.88641 29.3337H22.1164C26.0965 29.3337 29.3346 26.0955 29.3346 22.1154V9.88543C29.3346 5.90512 26.0965 2.66699 22.1162 2.66699ZM16.0013 23.2918C11.9807 23.2918 8.70984 20.021 8.70984 16.0003C8.70984 11.9797 11.9807 8.70887 16.0013 8.70887C20.0219 8.70887 23.2928 11.9797 23.2928 16.0003C23.2928 20.021 20.0219 23.2918 16.0013 23.2918ZM23.4671 10.4285C22.279 10.4285 21.3126 9.46204 21.3126 8.27387C21.3126 7.08569 22.279 6.11918 23.4671 6.11918C24.6553 6.11918 25.6218 7.08574 25.6218 8.27387C25.6218 9.46199 24.6553 10.4285 23.4671 10.4285Z" fill="#626262"/>
<path d="M15.9996 10.272C12.8413 10.272 10.2715 12.8415 10.2715 16.0001C10.2715 19.1584 12.8413 21.7282 15.9996 21.7282C19.1582 21.7282 21.7278 19.1584 21.7278 16.0001C21.7278 12.8415 19.1582 10.272 15.9996 10.272Z" fill="#626262"/>
</g>
</svg>
