<svg width="32" height="32" viewBox="0 0 32 32" fill="none" xmlns="http://www.w3.org/2000/svg">
<mask id="mask0_977_163" style="mask-type:alpha" maskUnits="userSpaceOnUse" x="0" y="0" width="32" height="32">
<rect width="32" height="32" fill="#D9D9D9"/>
</mask>
<g mask="url(#mask0_977_163)">
<path d="M29.326 29.3337L29.3327 29.3325V19.5525C29.3327 14.7681 28.3027 11.0825 22.7093 11.0825C20.0205 11.0825 18.216 12.5581 17.4793 13.957H17.4016V11.5292H12.0982V29.3325H17.6205V20.517C17.6205 18.1959 18.0605 15.9514 20.9349 15.9514C23.7671 15.9514 23.8093 18.6003 23.8093 20.6659V29.3337H29.326ZM3.10602 11.5303H8.6349V29.3337H3.10602V11.5303ZM5.86824 2.66699C4.10046 2.66699 2.66602 4.10144 2.66602 5.86921C2.66602 7.63699 4.10046 9.10144 5.86824 9.10144C7.63602 9.10144 9.07046 7.63699 9.07046 5.86921C9.06987 5.02011 8.73231 4.20596 8.1319 3.60555C7.5315 3.00515 6.71734 2.66758 5.86824 2.66699Z" fill="#626262"/>
</g>
</svg>
