<svg width="32" height="32" viewBox="0 0 32 32" fill="none" xmlns="http://www.w3.org/2000/svg">
<mask id="mask0_2188_82" style="mask-type:alpha" maskUnits="userSpaceOnUse" x="0" y="0" width="32" height="32">
<rect width="32" height="32" fill="#D9D9D9"/>
</mask>
<g mask="url(#mask0_2188_82)">
<path d="M26.9535 27.9524C28.5139 27.9524 28.5139 27.167 28.5139 26.3637L20.9588 18.8083C20.7842 18.9332 20.6099 19.0586 20.4358 19.1843C19.8704 19.6009 19.4116 19.926 19.0592 20.1589C18.7069 20.3923 18.2381 20.6303 17.653 20.8732C17.0675 21.1165 16.522 21.2377 16.0159 21.2377H15.9863C15.4802 21.2377 14.9347 21.1165 14.3493 20.8732C13.7638 20.6303 13.295 20.3923 12.9431 20.1589C12.5907 19.926 12.1321 19.6009 11.5664 19.1843C11.3932 19.0575 11.2194 18.9314 11.045 18.8063L3.48841 26.3637C3.48841 27.167 3.48841 27.9524 5.04901 27.9524C6.60962 27.9524 25.3931 27.9524 26.9535 27.9524ZM4.17111 14.0507C3.60576 13.6738 3.10443 13.2421 2.66797 12.7559V24.2508L9.327 17.5917C7.99481 16.6617 6.27836 15.4827 4.17111 14.0507ZM27.8466 14.0507C25.8197 15.4226 24.097 16.6036 22.6783 17.5944L29.3346 24.251V12.7559C28.9079 13.2323 28.4119 13.6637 27.8466 14.0507Z" fill="#626262"/>
<path d="M26.9532 5H5.04877C4.28459 5 3.69708 5.25805 3.2855 5.77362C2.87359 6.28943 2.66797 7.93451 2.66797 8.70813C2.66797 9.33302 2.94083 10.0101 3.48633 10.7396C4.03182 11.4687 4.61226 12.0415 5.22737 12.4581C5.56458 12.6964 6.58149 13.4033 8.27809 14.5787C9.07784 15.1326 9.87676 15.6877 10.6749 16.244C11.1763 16.5931 11.6769 16.9433 12.1768 17.2946C12.2245 17.3281 12.2995 17.3817 12.399 17.4529C12.5063 17.5299 12.642 17.6277 12.8094 17.7485C13.1318 17.9817 13.3996 18.1702 13.6129 18.3142C13.8259 18.4582 14.084 18.6191 14.3868 18.7977C14.6894 18.9762 14.9747 19.1103 15.2426 19.1995C15.5104 19.2887 15.7584 19.3335 15.9866 19.3335H16.0162C16.2443 19.3335 16.4923 19.2887 16.7602 19.1995C17.028 19.1103 17.3131 18.9764 17.6159 18.7977C17.9184 18.6191 18.1762 18.4579 18.3899 18.3142C18.6032 18.1702 18.871 17.9818 19.1935 17.7485C19.3605 17.6277 19.4962 17.5299 19.6035 17.4531C19.6774 17.4 19.7516 17.3471 19.826 17.2946C20.1496 17.0694 20.6539 16.7189 21.3319 16.2481C22.5656 15.3909 24.3825 14.1292 26.7903 12.4581C27.5144 11.9523 28.1194 11.342 28.6057 10.6279C29.091 9.91381 29.3343 9.16478 29.3343 8.38104C29.3343 7.72623 29.0984 6.16593 28.6276 5.69926C28.1562 5.23317 27.598 5 26.9532 5Z" fill="#626262"/>
</g>
</svg>
