<svg width="24" height="24" viewBox="0 0 24 24" fill="none" xmlns="http://www.w3.org/2000/svg">
<mask id="mask0_977_131" style="mask-type:alpha" maskUnits="userSpaceOnUse" x="0" y="0" width="24" height="24">
<rect width="24" height="24" fill="#D9D9D9"/>
</mask>
<g mask="url(#mask0_977_131)">
<path d="M21.8234 6.00488L15.7578 12.0314L21.8234 18.0579C21.933 17.8287 21.9996 17.5754 21.9996 17.3048V6.75797C21.9996 6.48738 21.933 6.23406 21.8234 6.00488Z" fill="#EA2340"/>
<path d="M20.2414 5H3.75699C3.48641 5 3.23309 5.06652 3.00391 5.17617L10.7564 12.8896C11.4418 13.575 12.5565 13.575 13.242 12.8896L20.9945 5.17617C20.7653 5.06652 20.512 5 20.2414 5Z" fill="#EA2340"/>
<path d="M2.17617 6.00488C2.06652 6.23406 2 6.48738 2 6.75797V17.3048C2 17.5754 2.06652 17.8288 2.17617 18.0579L8.24176 12.0314L2.17617 6.00488Z" fill="#EA2340"/>
<path d="M14.9289 12.8599L14.0705 13.7182C12.9284 14.8603 11.0699 14.8603 9.92777 13.7182L9.06949 12.8599L3.00391 18.8864C3.23309 18.996 3.48641 19.0626 3.75699 19.0626H20.2414C20.512 19.0626 20.7653 18.996 20.9945 18.8864L14.9289 12.8599Z" fill="#EA2340"/>
</g>
</svg>
