<svg width="80" height="80" viewBox="0 0 80 80" fill="none" xmlns="http://www.w3.org/2000/svg">
<g id="Mask group">
<mask id="mask0_977_14" style="mask-type:alpha" maskUnits="userSpaceOnUse" x="0" y="0" width="80" height="80">
<rect id="Rectangle 5725" width="80" height="80" fill="#D9D9D9"/>
</mask>
<g mask="url(#mask0_977_14)">
<g id="Group">
<path id="Vector" d="M55.8824 6.66699H24.1176C23.0259 6.6681 21.9793 7.06495 21.2074 7.7705C20.4354 8.47604 20.0012 9.43265 20 10.4304V69.5702C20.0012 70.568 20.4354 71.5246 21.2074 72.2302C21.9793 72.9357 23.0259 73.3326 24.1176 73.3337H55.8824C56.9741 73.3326 58.0207 72.9357 58.7926 72.2302C59.5646 71.5246 59.9988 70.568 60 69.5702V10.4304C59.9988 9.43265 59.5646 8.47604 58.7926 7.7705C58.0207 7.06495 56.9741 6.6681 55.8824 6.66699ZM44.3721 8.81753L43.7838 10.9681H36.2088L35.6206 8.81753H44.3721ZM57.6471 69.5702C57.6467 69.9979 57.4606 70.4079 57.1298 70.7103C56.7989 71.0127 56.3503 71.1828 55.8824 71.1831H24.1176C23.6497 71.1828 23.2011 71.0127 22.8702 70.7103C22.5394 70.4079 22.3533 69.9979 22.3529 69.5702V10.4304C22.3533 10.0028 22.5394 9.59273 22.8702 9.29033C23.2011 8.98793 23.6497 8.81789 24.1176 8.81753H33.1941L34.1485 12.3054C34.2125 12.538 34.3597 12.7444 34.5667 12.8918C34.7738 13.0391 35.0288 13.1189 35.2912 13.1186H44.7029C44.9653 13.1186 45.2201 13.0384 45.4269 12.8908C45.6336 12.7432 45.7805 12.5367 45.8441 12.3041L46.7971 8.81753H55.8824C56.3503 8.81789 56.7989 8.98793 57.1298 9.29033C57.4606 9.59273 57.6467 10.0028 57.6471 10.4304V69.5702Z" fill="#353945"/>
<path id="Vector_2" d="M43.5283 67.9575H36.4694C36.1574 67.9575 35.8582 68.0708 35.6375 68.2725C35.4169 68.4741 35.293 68.7476 35.293 69.0328C35.293 69.318 35.4169 69.5915 35.6375 69.7931C35.8582 69.9948 36.1574 70.1081 36.4694 70.1081H43.5283C43.8403 70.1081 44.1395 69.9948 44.3602 69.7931C44.5808 69.5915 44.7047 69.318 44.7047 69.0328C44.7047 68.7476 44.5808 68.4741 44.3602 68.2725C44.1395 68.0708 43.8403 67.9575 43.5283 67.9575Z" fill="#353945"/>
</g>
</g>
</g>
</svg>
