<svg width="20" height="20" viewBox="0 0 20 20" fill="none" xmlns="http://www.w3.org/2000/svg">
<mask id="mask0_977_56" style="mask-type:alpha" maskUnits="userSpaceOnUse" x="0" y="0" width="20" height="20">
<rect width="20" height="20" fill="#D9D9D9"/>
</mask>
<g mask="url(#mask0_977_56)">
<path d="M9.99544 1.6665C5.40037 1.6665 1.66211 5.40476 1.66211 9.99984C1.66211 14.5949 5.40037 18.3332 9.99544 18.3332C14.5905 18.3332 18.3288 14.5949 18.3288 9.99984C18.3288 5.40476 14.5905 1.6665 9.99544 1.6665ZM9.99544 16.5117C6.40472 16.5117 3.4836 13.5906 3.4836 9.99984C3.4836 6.40929 6.40472 3.488 9.99544 3.488C13.5862 3.488 16.5073 6.40929 16.5073 9.99984C16.5073 13.5906 13.5862 16.5117 9.99544 16.5117Z" fill="#AEB6C1"/>
<path d="M10.7166 10.0097V6.51704C10.7166 6.12706 10.4005 5.81104 10.0107 5.81104C9.62074 5.81104 9.30469 6.12706 9.30469 6.51704V10.2353C9.30469 10.2464 9.30743 10.2568 9.30796 10.2679C9.29867 10.4599 9.36481 10.6548 9.51142 10.8014L12.1408 13.4306C12.4166 13.7063 12.8635 13.7063 13.1391 13.4306C13.4147 13.1548 13.4149 12.7078 13.1391 12.4322L10.7166 10.0097Z" fill="#AEB6C1"/>
</g>
</svg>
