<svg width="61" height="60" viewBox="0 0 61 60" fill="none" xmlns="http://www.w3.org/2000/svg">
<mask id="mask0_977_195" style="mask-type:alpha" maskUnits="userSpaceOnUse" x="0" y="-1" width="61" height="62">
<rect x="0.5" width="60" height="60" fill="#D9D9D9" stroke="black" stroke-width="0.5"/>
</mask>
<g mask="url(#mask0_977_195)">
<path d="M54.9738 26.2349L51.0755 25.3306C50.5472 23.002 49.6236 20.7813 48.3449 18.7649L50.4684 15.3585C50.5502 15.2274 50.5851 15.0726 50.5676 14.9191C50.5501 14.7657 50.4811 14.6227 50.3719 14.5135L45.9889 10.1304C45.8797 10.0211 45.7367 9.95205 45.5833 9.93445C45.4298 9.91686 45.2749 9.95178 45.1439 10.0335L41.7366 12.1567C39.7203 10.8782 37.4997 9.95471 35.1714 9.42645L34.2666 5.52816C34.2316 5.37793 34.1467 5.24398 34.0258 5.14809C33.905 5.0522 33.7552 5.00001 33.601 5H27.4022C27.248 5.00043 27.0985 5.05295 26.9779 5.14904C26.8574 5.24513 26.7728 5.37914 26.738 5.52933L25.8333 9.42762C23.5045 9.95535 21.2834 10.8784 19.2665 12.1567L15.8592 10.0335C15.7282 9.95178 15.5733 9.91686 15.4198 9.93445C15.2664 9.95205 15.1234 10.0211 15.0143 10.1304L10.6312 14.5135C10.522 14.6227 10.4531 14.7657 10.4355 14.9191C10.418 15.0726 10.453 15.2274 10.5347 15.3585L12.6583 18.7649C11.3795 20.7813 10.4559 23.002 9.92762 25.3306L6.02894 26.2349C5.87847 26.27 5.74429 26.3549 5.64824 26.4759C5.5522 26.5969 5.49995 26.7469 5.5 26.9014V33.0998C5.50048 33.2539 5.55297 33.4033 5.64897 33.5238C5.74497 33.6444 5.87886 33.729 6.02894 33.7639L9.92762 34.6683C10.4559 36.9968 11.3795 39.2175 12.6583 41.2339L10.5347 44.6404C10.453 44.7715 10.4181 44.9264 10.4356 45.0799C10.4531 45.2334 10.5221 45.3764 10.6312 45.4857L15.0143 49.8684C15.1234 49.9777 15.2664 50.0468 15.4198 50.0644C15.5733 50.082 15.7282 50.0471 15.8592 49.9653L19.2665 47.8421C21.2827 49.1208 23.5033 50.0443 25.8317 50.5724L26.7365 54.4711C26.7714 54.6212 26.8559 54.7551 26.9765 54.8511C27.097 54.9471 27.2465 54.9996 27.4006 55H33.601C33.7551 54.9996 33.9045 54.9471 34.0251 54.8511C34.1456 54.7551 34.2302 54.6212 34.2651 54.4711L35.1698 50.5724C37.4982 50.0443 39.7188 49.1208 41.7351 47.8421L45.1423 49.9653C45.2734 50.0471 45.4283 50.082 45.5817 50.0644C45.7352 50.0468 45.8781 49.9777 45.9873 49.8684L50.3704 45.4857C50.4795 45.3764 50.5484 45.2334 50.566 45.0799C50.5835 44.9264 50.5486 44.7715 50.4669 44.6404L48.3433 41.2339C49.6221 39.2175 50.5456 36.9968 51.0739 34.6683L54.9722 33.7639C55.1224 33.729 55.2563 33.6444 55.3524 33.5239C55.4484 33.4034 55.501 33.2539 55.5016 33.0998V26.9014C55.5016 26.7471 55.4495 26.5972 55.3537 26.4763C55.2579 26.3553 55.124 26.2702 54.9738 26.2349ZM54.1359 32.5564L50.3442 33.4362C50.2167 33.4657 50.1004 33.5313 50.009 33.6251C49.9177 33.7188 49.8552 33.8369 49.8289 33.9651C49.325 36.4231 48.3527 38.7612 46.9651 40.8519C46.8928 40.9611 46.8534 41.0888 46.8516 41.2197C46.8498 41.3507 46.8857 41.4794 46.9549 41.5906L49.0211 44.9048L45.406 48.5195L42.0917 46.4538C41.9805 46.3846 41.8518 46.3488 41.7209 46.3506C41.59 46.3524 41.4623 46.3917 41.353 46.4639C39.2626 47.8519 36.9244 48.8242 34.4663 49.3278C34.338 49.354 34.22 49.4165 34.1262 49.5078C34.0325 49.5992 33.9669 49.7155 33.9373 49.843L33.0576 53.6359H27.9455L27.0658 49.8442C27.0361 49.7167 26.9705 49.6005 26.8768 49.5091C26.783 49.4178 26.6651 49.3553 26.5369 49.3289C24.0787 48.8255 21.7405 47.8531 19.6501 46.4651C19.5408 46.3929 19.4132 46.3536 19.2822 46.3518C19.1513 46.35 19.0226 46.3858 18.9114 46.4549L15.5971 48.5183L11.982 44.9037L14.0482 41.5894C14.1174 41.4782 14.1533 41.3495 14.1515 41.2185C14.1497 41.0876 14.1103 40.9599 14.038 40.8507C12.6503 38.7602 11.678 36.422 11.1742 33.9639C11.1479 33.8357 11.0854 33.7177 10.9941 33.6239C10.9028 33.5301 10.7864 33.4646 10.6589 33.435L6.86727 32.5564V27.4444L10.6589 26.5638C10.7864 26.5343 10.9027 26.4688 10.9941 26.3751C11.0854 26.2814 11.1479 26.1635 11.1742 26.0353C11.6779 23.5771 12.6502 21.2388 14.038 19.1482C14.1103 19.0389 14.1497 18.9112 14.1515 18.7803C14.1533 18.6493 14.1174 18.5206 14.0482 18.4094L11.982 15.0952L15.5971 11.4805L18.9114 13.5462C19.0226 13.6155 19.1513 13.6513 19.2822 13.6495C19.4132 13.6477 19.5409 13.6084 19.6501 13.5361C21.7405 12.1481 24.0787 11.1757 26.5369 10.6722C26.6651 10.6459 26.7831 10.5833 26.8769 10.4919C26.9706 10.4005 27.0362 10.2841 27.0658 10.1566L27.9455 6.36727H33.0576L33.9393 10.1566C33.9689 10.2841 34.0344 10.4004 34.1282 10.4918C34.222 10.5831 34.34 10.6456 34.4682 10.6718C36.9264 11.1754 39.2646 12.1477 41.355 13.5357C41.4642 13.608 41.5919 13.6473 41.7228 13.6491C41.8538 13.651 41.9825 13.6151 42.0937 13.5458L45.408 11.4801L49.023 15.0948L46.9569 18.409C46.8876 18.5202 46.8518 18.6489 46.8536 18.7799C46.8554 18.9109 46.8948 19.0385 46.967 19.1478C48.3547 21.2385 49.327 23.5767 49.8309 26.0349C49.8572 26.1631 49.9197 26.2811 50.011 26.3748C50.1024 26.4685 50.2187 26.5339 50.3462 26.5635L54.1378 27.4432L54.1359 32.5564Z" fill="#353945" stroke="#353945" stroke-width="0.5"/>
<path d="M30.5008 16.7197C27.8739 16.7197 25.3059 17.4987 23.1217 18.9582C20.9375 20.4176 19.2351 22.492 18.2298 24.919C17.2245 27.346 16.9615 30.0165 17.474 32.593C17.9865 35.1695 19.2515 37.5361 21.109 39.3937C22.9665 41.2512 25.3332 42.5162 27.9096 43.0287C30.4861 43.5412 33.1567 43.2781 35.5837 42.2729C38.0107 41.2676 40.085 39.5652 41.5445 37.3809C43.0039 35.1967 43.7829 32.6288 43.7829 30.0018C43.779 26.4804 42.3784 23.1043 39.8883 20.6143C37.3983 18.1243 34.0223 16.7237 30.5008 16.7197ZM30.5008 41.9166C28.1443 41.9166 25.8407 41.2178 23.8813 39.9086C21.9219 38.5994 20.3948 36.7386 19.493 34.5614C18.5912 32.3843 18.3552 29.9886 18.815 27.6773C19.2747 25.3661 20.4095 23.2431 22.0758 21.5768C23.7421 19.9105 25.8651 18.7757 28.1764 18.3159C30.4876 17.8562 32.8833 18.0922 35.0604 18.994C37.2376 19.8958 39.0984 21.4229 40.4076 23.3823C41.7169 25.3417 42.4156 27.6453 42.4156 30.0018C42.4121 33.1607 41.1557 36.1893 38.922 38.423C36.6883 40.6567 33.6598 41.9131 30.5008 41.9166Z" fill="#353945" stroke="#353945" stroke-width="0.5"/>
</g>
</svg>
