<svg width="81" height="80" viewBox="0 0 81 80" fill="none" xmlns="http://www.w3.org/2000/svg">
<g id="Mask group">
<mask id="mask0_977_23" style="mask-type:alpha" maskUnits="userSpaceOnUse" x="0" y="0" width="81" height="80">
<rect id="Rectangle 5725" x="0.666016" width="80" height="80" fill="#D9D9D9"/>
</mask>
<g mask="url(#mask0_977_23)">
<g id="Group">
<path id="Vector" d="M10.6664 10C9.78416 10.0042 8.93924 10.3438 8.315 10.945C7.69075 11.5463 7.33755 12.3606 7.33203 13.2114V53.9268C7.33203 55.6884 8.84384 57.1423 10.6664 57.1423H32.5751L30.9079 63.5732H27.3383C26.1205 63.5732 25.1126 64.5451 25.1126 65.7154V67.8577C25.1126 69.024 26.1205 70 27.3383 70H54.0008C55.2102 70 56.2265 69.0281 56.2265 67.8537V65.7154C56.2221 65.1475 55.9862 64.604 55.5697 64.2024C55.1533 63.8008 54.5897 63.5734 54.0008 63.5691H50.4186L48.7556 57.1423H70.6642C71.1029 57.145 71.5378 57.0636 71.9436 56.903C72.3494 56.7424 72.7181 56.5056 73.0282 56.2065C73.3384 55.9074 73.5839 55.5518 73.7505 55.1605C73.9171 54.7692 74.0014 54.3498 73.9986 53.9268V13.2114C73.9942 12.3603 73.6414 11.5453 73.0169 10.9439C72.3924 10.3424 71.5468 10.0032 70.6642 10H10.6664ZM10.6664 12.1463H70.6642C71.3026 12.1463 71.7729 12.5958 71.7729 13.2114V48.5732H9.55355V13.2114C9.55355 12.5958 10.0323 12.1423 10.6664 12.1423V12.1463ZM9.55355 50.7195H71.7729V53.9268C71.777 54.0683 71.7511 54.2091 71.6968 54.3405C71.6425 54.472 71.561 54.5914 71.4572 54.6915C71.3534 54.7916 71.2296 54.8702 71.0933 54.9225C70.9569 54.9749 70.8109 54.9999 70.6642 54.9959C50.6454 54.9879 30.6853 54.9959 10.6664 54.9959C10.5195 54.9998 10.3734 54.9749 10.2368 54.9226C10.1002 54.8703 9.97613 54.7917 9.87204 54.6917C9.76794 54.5917 9.68603 54.4723 9.63127 54.3408C9.57652 54.2094 9.55008 54.0685 9.55355 53.9268V50.7195ZM34.868 57.1423H46.4669L48.1341 63.5732H33.205L34.868 57.1423ZM27.3341 65.7154C36.2328 65.7397 45.1819 65.7154 54.0008 65.7154V67.8577H27.3341V65.7154Z" fill="#353945"/>
</g>
</g>
</g>
</svg>
